<svg width="32" height="32" viewBox="0 0 32 32" fill="none" xmlns="http://www.w3.org/2000/svg">
  <!-- 定义渐变 -->
  <defs>
    <linearGradient id="faviconGradient" x1="0%" y1="0%" x2="100%" y2="100%">
      <stop offset="0%" style="stop-color:#26A69A;stop-opacity:1" />
      <stop offset="100%" style="stop-color:#00695C;stop-opacity:1" />
    </linearGradient>
  </defs>
  
  <!-- 圆角背景 -->
  <rect width="32" height="32" rx="6" fill="url(#faviconGradient)"/>
  
  <!-- CX字母变形鸟 - 极简版 -->
  <g fill="#FFFFFF">
    <!-- C字母变形成鸟身（简化） -->
    <path d="M20 16 
             C20 12, 18 10, 16 10
             C14 10, 12 12, 12 16
             C12 20, 14 22, 16 22
             C17 22, 18 21, 18 20
             L17 19
             C16 20, 15 20, 15 19
             C14 18, 14 16, 14 16
             C14 14, 16 12, 16 12
             C18 12, 18 14, 18 16
             C18 17, 17 18, 17 18
             L18 19
             C19 18, 20 17, 20 16 Z"/>
    
    <!-- 鸟嘴 -->
    <path d="M12 16 L9 15 L11 17 L12 16 Z"/>
    
    <!-- 鸟眼 -->
    <circle cx="15" cy="14" r="1" fill="#00695C"/>
    
    <!-- X字母变形成翅膀（极简） -->
    <!-- 上翅膀 -->
    <path d="M18 12 L22 8 L24 10 L20 14 Z" opacity="0.8"/>
    
    <!-- 下翅膀 -->
    <path d="M18 20 L22 24 L24 22 L20 18 Z" opacity="0.8"/>
    
    <!-- 时钟指针 -->
    <g stroke="#FFFFFF" stroke-width="1" stroke-linecap="round" opacity="0.6">
      <line x1="16" y1="16" x2="16" y2="14"/>
      <line x1="16" y1="16" x2="17" y2="15"/>
    </g>
  </g>
</svg> 